<svg xmlns="http://www.w3.org/2000/svg" role="img" aria-labelledby="title description" viewBox="0 0 1200 760">
  <title id="title">Work items, attempts, and related facts</title>
  <desc id="description">A work item moves through a visible lifecycle while its execution attempt, accepted scope, authority, and evidence remain separate related facts.</desc>
  <metadata>Generated by docs.how_it_works; source revision 9d49fdcf938a9cb4</metadata>
  <defs>
    <pattern id="grid" width="24" height="24" patternUnits="userSpaceOnUse">
      <path d="M24 0H0V24" fill="none" stroke="#e8e1d5" stroke-width="1"/>
    </pattern>
    <marker id="arrow" viewBox="0 0 10 10" refX="9" refY="5" markerWidth="7" markerHeight="7" orient="auto">
      <path d="M1 1L9 5L1 9Z" fill="#697487"/>
    </marker>
    <style>
      text { font-family: ui-sans-serif, system-ui, -apple-system, BlinkMacSystemFont, "Segoe UI", sans-serif; fill: #292721; }
      .section-label, .box-label, .box-meta, .connector-label, .note-meta { font-family: ui-monospace, SFMono-Regular, Menlo, monospace; }
      .section-label, .box-label { font-size: 11px; font-weight: 700; letter-spacing: 0.11em; fill: #6d665b; }
      .section-subtitle { font-size: 11px; fill: #625d53; }
      .guide { stroke: #d3ccc0; stroke-width: 1; }
      .connector { fill: none; stroke: #697487; stroke-width: 1.9; stroke-linecap: round; }
      .connector-label { font-size: 10px; font-weight: 700; fill: #697487; }
      .box { fill: #fff; stroke: #aaa397; stroke-width: 1.2; }
      .box-title { font-size: 15px; font-weight: 700; }
      .box-body { font-size: 11px; fill: #625d53; }
      .box-meta { font-size: 10px; fill: #697487; }
      .note { fill: #625d53; }
      .note-meta { font-weight: 700; letter-spacing: 0.08em; fill: #6d665b; }
    </style>
  </defs>
  <rect width="1200" height="760" fill="#fffdf7"/>
  <rect width="1200" height="760" fill="url(#grid)"/>
  <text x="28" y="38" class="section-label">WORK ITEM · MAIN ROUTE</text><text x="962" y="224" class="section-label">REVERSIBLE SIDE STATES</text><text x="28" y="410" class="section-label">ATTEMPT · SAME EXECUTION IDENTITY</text><text x="28" y="580" class="section-label">RELATED FACTS · NOT ANOTHER STATUS</text><line x1="212" y1="34" x2="1172" y2="34" class="guide"/><line x1="304" y1="406" x2="1172" y2="406" class="guide"/><line x1="300" y1="576" x2="1172" y2="576" class="guide"/><path d="M232 122L282 122" class="connector" marker-end="url(#arrow)"/><path d="M442 122L492 122" class="connector" marker-end="url(#arrow)"/><path d="M672 122L732 122" class="connector" marker-end="url(#arrow)"/><path d="M927 122L982 122" class="connector" marker-end="url(#arrow)"/><path d="M152 169L152 248" class="connector" marker-end="url(#arrow)"/><text x="178" y="214" text-anchor="middle" class="connector-label">DEFER</text><path d="M552 169L552 248" class="connector" marker-end="url(#arrow)"/><text x="578" y="214" text-anchor="middle" class="connector-label">PAUSE</text><path d="M232 480L282 480" class="connector" marker-end="url(#arrow)"/><path d="M442 480L492 480" class="connector" marker-end="url(#arrow)"/><path d="M672 480L742 480" class="connector" marker-end="url(#arrow)"/><path d="M902 480L962 480" class="connector" marker-end="url(#arrow)"/><rect x="72" y="78" width="160" height="91" class="box"/><rect x="72" y="78" width="3" height="91" fill="#394a62"/><text x="88" y="100" class="box-label">INTAKE</text><text x="88" y="127" class="box-title">Visible finding</text><text x="88" y="155" class="box-meta">WorkState.INTAKE</text><rect x="282" y="78" width="160" height="91" class="box"/><rect x="282" y="78" width="3" height="91" fill="#394a62"/><text x="298" y="100" class="box-label">READY</text><text x="298" y="127" class="box-title">Accepted work</text><text x="298" y="155" class="box-meta">WorkState.READY</text><rect x="492" y="78" width="180" height="91" class="box"/><rect x="492" y="78" width="3" height="91" fill="#394a62"/><text x="508" y="100" class="box-label">ACTIVE</text><text x="508" y="127" class="box-title">Attempt underway</text><text x="508" y="155" class="box-meta">WorkState.ACTIVE</text><rect x="732" y="78" width="195" height="91" class="box"/><rect x="732" y="78" width="3" height="91" fill="#394a62"/><text x="748" y="100" class="box-label">REVIEW</text><text x="748" y="127" class="box-title">Candidate protected</text><text x="748" y="155" class="box-meta">return · correction</text><rect x="982" y="78" width="150" height="91" class="box"/><rect x="982" y="78" width="3" height="91" fill="#81796f"/><text x="998" y="100" class="box-label">TERMINAL</text><text x="998" y="127" class="box-title">Done</text><text x="998" y="155" class="box-meta">accepted outcome</text><rect x="72" y="248" width="190" height="105" class="box"/><rect x="72" y="248" width="3" height="105" fill="#81796f"/><text x="88" y="270" class="box-label">DEFERRED</text><text x="88" y="297" class="box-title">Saved for later</text><text x="88" y="318" class="box-body">entered · defer</text><text x="88" y="339" class="box-body">returns via · reopen</text><rect x="472" y="248" width="190" height="105" class="box"/><rect x="472" y="248" width="3" height="105" fill="#81796f"/><text x="488" y="270" class="box-label">PAUSED</text><text x="488" y="297" class="box-title">Safe interruption</text><text x="488" y="318" class="box-body">entered · pause</text><text x="488" y="339" class="box-body">returns via · resume</text><rect x="762" y="248" width="200" height="105" class="box"/><rect x="762" y="248" width="3" height="105" fill="#81796f"/><text x="778" y="270" class="box-label">BLOCKED</text><text x="778" y="297" class="box-title">Named condition</text><text x="778" y="318" class="box-body">entered · block</text><text x="778" y="339" class="box-body">returns via · resume</text><rect x="72" y="440" width="160" height="80" class="box"/><rect x="72" y="440" width="3" height="80" fill="#394a62"/><text x="88" y="468" class="box-title">Active</text><text x="88" y="489" class="box-body">worker owns attempt</text><text x="88" y="506" class="box-meta">AttemptState.ACTIVE</text><rect x="282" y="440" width="160" height="80" class="box"/><rect x="282" y="440" width="3" height="80" fill="#394a62"/><text x="298" y="468" class="box-title">Paused</text><text x="298" y="489" class="box-body">identity retained</text><text x="298" y="506" class="box-meta">AttemptState.PAUSED</text><rect x="492" y="440" width="180" height="80" class="box"/><rect x="492" y="440" width="3" height="80" fill="#394a62"/><text x="508" y="468" class="box-title">Blocked</text><text x="508" y="489" class="box-body">condition retained</text><text x="508" y="506" class="box-meta">AttemptState.BLOCKED</text><rect x="742" y="440" width="160" height="80" class="box"/><rect x="742" y="440" width="3" height="80" fill="#394a62"/><text x="758" y="468" class="box-title">Review</text><text x="758" y="489" class="box-body">candidate bound</text><text x="758" y="506" class="box-meta">AttemptState.REVIEW</text><rect x="962" y="440" width="160" height="80" class="box"/><rect x="962" y="440" width="3" height="80" fill="#394a62"/><text x="978" y="468" class="box-title">Done</text><text x="978" y="489" class="box-body">execution record</text><text x="978" y="506" class="box-meta">AttemptState.DONE</text><rect x="72" y="610" width="220" height="96" class="box"/><rect x="72" y="610" width="3" height="96" fill="#394a62"/><text x="88" y="632" class="box-label">PROPOSAL</text><text x="88" y="659" class="box-title">Why the work exists</text><text x="88" y="680" class="box-body">trigger · evidence · consequence</text><rect x="338" y="610" width="220" height="96" class="box"/><rect x="338" y="610" width="3" height="96" fill="#394a62"/><text x="354" y="632" class="box-label">ACCEPTED SCOPE</text><text x="354" y="659" class="box-title">What was authorized</text><text x="354" y="680" class="box-body">revision bound to an attempt</text><rect x="604" y="610" width="220" height="96" class="box"/><rect x="604" y="610" width="3" height="96" fill="#394a62"/><text x="620" y="632" class="box-label">AUTHORITY</text><text x="620" y="659" class="box-title">Who may change it</text><text x="620" y="680" class="box-body">coordination · attempt lease</text><rect x="870" y="610" width="250" height="96" class="box"/><rect x="870" y="610" width="3" height="96" fill="#394a62"/><text x="886" y="632" class="box-label">CANDIDATE + EVIDENCE</text><text x="886" y="659" class="box-title">What review can accept</text><text x="886" y="680" class="box-body">protected result · durable references</text>
  <rect x="0.5" y="0.5" width="1199" height="759" fill="none" stroke="#cec7b9"/>
</svg>
